REM DIRINDEX 1\2\3,1\2\4,1\2\5,1\2\6
REM DIRNAME cjc157,folder01,folder02,folder03,folder04,folder05
TITLE ""
FILE "102 102.mp3" MP3
  TRACK 01 AUDIO
    TITLE "0:"
    INDEX 01 00:00:00
  TRACK 02 AUDIO
    TITLE "3:cjc157_3844"
    INDEX 01 00:00:11
  TRACK 03 AUDIO
    TITLE "0:"
    INDEX 01 00:01:34
  TRACK 04 AUDIO
    TITLE "4:cjc157_3845"
    INDEX 01 00:02:04
  TRACK 05 AUDIO
    TITLE "0:"
    INDEX 01 00:03:27
  TRACK 06 AUDIO
    TITLE "5:cjc157_3846"
    INDEX 01 00:03:70
  TRACK 07 AUDIO
    TITLE "0:"
    INDEX 01 00:06:02
  TRACK 08 AUDIO
    TITLE "5:cjc157_3847"
    INDEX 01 00:06:51
  TRACK 09 AUDIO
    TITLE "0:"
    INDEX 01 00:07:70
  TRACK 10 AUDIO
    TITLE "3:cjc157_3848"
    INDEX 01 00:08:40
  TRACK 11 AUDIO
    TITLE "0:"
    INDEX 01 00:09:53
  TRACK 12 AUDIO
    TITLE "4:cjc157_3849"
    INDEX 01 00:10:25
  TRACK 13 AUDIO
    TITLE "0:"
    INDEX 01 00:11:44
  TRACK 14 AUDIO
    TITLE "5:cjc157_3850"
    INDEX 01 00:12:14
  TRACK 15 AUDIO
    TITLE "0:"
    INDEX 01 00:16:14
  TRACK 16 AUDIO
    TITLE "3:cjc157_3851"
    INDEX 01 00:16:61
  TRACK 17 AUDIO
    TITLE "0:"
    INDEX 01 00:17:57
  TRACK 18 AUDIO
    TITLE "4:cjc157_3852"
    INDEX 01 00:18:29
  TRACK 19 AUDIO
    TITLE "0:"
    INDEX 01 00:19:34
  TRACK 20 AUDIO
    TITLE "5:cjc157_3853"
    INDEX 01 00:20:08
  TRACK 21 AUDIO
    TITLE "0:"
    INDEX 01 00:22:03
  TRACK 22 AUDIO
    TITLE "5:cjc157_3854"
    INDEX 01 00:22:44
  TRACK 23 AUDIO
    TITLE "0:"
    INDEX 01 00:25:50
  TRACK 24 AUDIO
    TITLE "3:cjc157_3855"
    INDEX 01 00:26:22
  TRACK 25 AUDIO
    TITLE "0:"
    INDEX 01 00:27:49
  TRACK 26 AUDIO
    TITLE "4:cjc157_3856"
    INDEX 01 00:28:23
  TRACK 27 AUDIO
    TITLE "0:"
    INDEX 01 00:29:48
  TRACK 28 AUDIO
    TITLE "5:cjc157_3857"
    INDEX 01 00:30:20
  TRACK 29 AUDIO
    TITLE "0:"
    INDEX 01 00:33:28
  TRACK 30 AUDIO
    TITLE "3:cjc157_3858"
    INDEX 01 00:33:71
  TRACK 31 AUDIO
    TITLE "0:"
    INDEX 01 00:35:19
  TRACK 32 AUDIO
    TITLE "4:cjc157_3859"
    INDEX 01 00:35:66
  TRACK 33 AUDIO
    TITLE "0:"
    INDEX 01 00:36:66
  TRACK 34 AUDIO
    TITLE "5:cjc157_3860"
    INDEX 01 00:37:38
  TRACK 35 AUDIO
    TITLE "0:"
    INDEX 01 00:39:05
  TRACK 36 AUDIO
    TITLE "5:cjc157_3861"
    INDEX 01 00:39:51
  TRACK 37 AUDIO
    TITLE "0:"
    INDEX 01 00:41:06
  TRACK 38 AUDIO
    TITLE "3:cjc157_3862"
    INDEX 01 00:41:57
  TRACK 39 AUDIO
    TITLE "0:"
    INDEX 01 00:43:07
  TRACK 40 AUDIO
    TITLE "4:cjc157_3863"
    INDEX 01 00:43:52
  TRACK 41 AUDIO
    TITLE "0:"
    INDEX 01 00:44:67
  TRACK 42 AUDIO
    TITLE "5:cjc157_3864"
    INDEX 01 00:45:37
  TRACK 43 AUDIO
    TITLE "0:"
    INDEX 01 00:48:44
  TRACK 44 AUDIO
    TITLE "3:cjc157_3865"
    INDEX 01 00:49:08
  TRACK 45 AUDIO
    TITLE "0:"
    INDEX 01 00:50:27
  TRACK 46 AUDIO
    TITLE "4:cjc157_3866"
    INDEX 01 00:50:72
  TRACK 47 AUDIO
    TITLE "0:"
    INDEX 01 00:52:14
  TRACK 48 AUDIO
    TITLE "5:cjc157_3867"
    INDEX 01 00:52:57
  TRACK 49 AUDIO
    TITLE "0:"
    INDEX 01 00:55:51
  TRACK 50 AUDIO
    TITLE "5:cjc157_3868"
    INDEX 01 00:56:18
  TRACK 51 AUDIO
    TITLE "0:"
    INDEX 01 00:58:50
  TRACK 52 AUDIO
    TITLE "3:cjc157_3869"
    INDEX 01 00:59:22
  TRACK 53 AUDIO
    TITLE "0:"
    INDEX 01 01:00:17
  TRACK 54 AUDIO
    TITLE "4:cjc157_3870"
    INDEX 01 01:00:60
  TRACK 55 AUDIO
    TITLE "0:"
    INDEX 01 01:02:03
  TRACK 56 AUDIO
    TITLE "5:cjc157_3871"
    INDEX 01 01:02:50
  TRACK 57 AUDIO
    TITLE "0:"
    INDEX 01 01:05:07
  TRACK 58 AUDIO
    TITLE "3:cjc157_3872"
    INDEX 01 01:05:50
  TRACK 59 AUDIO
    TITLE "0:"
    INDEX 01 01:06:67
  TRACK 60 AUDIO
    TITLE "4:cjc157_3873"
    INDEX 01 01:07:37
  TRACK 61 AUDIO
    TITLE "0:"
    INDEX 01 01:08:60
  TRACK 62 AUDIO
    TITLE "5:cjc157_3874"
    INDEX 01 01:09:26
  TRACK 63 AUDIO
    TITLE "0:"
    INDEX 01 01:11:74
  TRACK 64 AUDIO
    TITLE "3:cjc157_3875"
    INDEX 01 01:12:46
  TRACK 65 AUDIO
    TITLE "0:"
    INDEX 01 01:13:67
  TRACK 66 AUDIO
    TITLE "4:cjc157_3876"
    INDEX 01 01:14:39
  TRACK 67 AUDIO
    TITLE "0:"
    INDEX 01 01:15:64
  TRACK 68 AUDIO
    TITLE "5:cjc157_3877"
    INDEX 01 01:16:30
  TRACK 69 AUDIO
    TITLE "0:"
    INDEX 01 01:18:68
  TRACK 70 AUDIO
    TITLE "5:cjc157_3878"
    INDEX 01 01:19:34
  TRACK 71 AUDIO
    TITLE "0:"
    INDEX 01 01:20:69
  TRACK 72 AUDIO
    TITLE "5:cjc157_3879"
    INDEX 01 01:21:41
  TRACK 73 AUDIO
    TITLE "0:"
    INDEX 01 01:22:60
